<?xml version="1.0" encoding="utf-8"?>
<!-- Svg Vector Icons : http://www.onlinewebfonts.com/icon -->
<!DOCTYPE svg PUBLIC "-//W3C//DTD SVG 1.1//EN" "http://www.w3.org/Graphics/SVG/1.1/DTD/svg11.dtd">
<svg version="1.1" xmlns="http://www.w3.org/2000/svg" xmlns:xlink="http://www.w3.org/1999/xlink" x="0px" y="0px" viewBox="0 0 1000 1000" enable-background="new 0 0 1000 1000" xml:space="preserve">
<metadata> Svg Vector Icons : http://www.onlinewebfonts.com/icon </metadata>
<g><path d="M500,990C229.8,990,10,770.2,10,500S229.8,10,500,10s490,219.8,490,490S770.2,990,500,990z M500,50.8C252.3,50.8,50.8,252.3,50.8,500S252.3,949.2,500,949.2S949.2,747.7,949.2,500S747.7,50.8,500,50.8z"/><path d="M500,867.5c-189.3,0-326.7-163.1-326.7-387.9c0-11.3,9.1-20.4,20.4-20.4h612.5c11.3,0,20.4,9.1,20.4,20.4C826.7,704.4,689.3,867.5,500,867.5z M214.6,500c7.6,193.4,122.8,326.7,285.4,326.7S777.9,693.4,785.4,500H214.6z"/><path d="M785.8,581.7H214.2c-11.3,0-20.4-9.1-20.4-20.4c0-11.3,9.1-20.4,20.4-20.4h571.7c11.3,0,20.4,9.1,20.4,20.4C806.3,572.5,797.1,581.7,785.8,581.7z"/><path d="M377.5,377.5c-23.6,0-40.8-25.8-40.8-61.3c0-35.5,17.2-61.3,40.8-61.3c23.6,0,40.8,25.8,40.8,61.3C418.3,351.7,401.1,377.5,377.5,377.5z"/><path d="M622.5,377.5c-23.6,0-40.8-25.8-40.8-61.3c0-35.5,17.2-61.3,40.8-61.3s40.8,25.8,40.8,61.3C663.3,351.7,646.1,377.5,622.5,377.5z"/></g>
</svg>